<mxfile host="65bd71144e">
    <diagram id="iP4Fh_0YvaiikI7TWCth" name="concept">
        <mxGraphModel dx="719" dy="481" grid="1" gridSize="10" guides="1" tooltips="1" connect="1" arrows="1" fold="1" page="1" pageScale="1" pageWidth="1169" pageHeight="827" math="0" shadow="0">
            <root>
                <mxCell id="0"/>
                <mxCell id="1" parent="0"/>
                <mxCell id="2" value="Package" style="rounded=0;whiteSpace=wrap;html=1;fontSize=10;fontStyle=1" vertex="1" parent="1">
                    <mxGeometry x="40" y="100" width="80" height="20" as="geometry"/>
                </mxCell>
                <mxCell id="3" value="" style="endArrow=none;html=1;entryX=0.25;entryY=1;entryDx=0;entryDy=0;fontSize=10;" edge="1" parent="1" target="2">
                    <mxGeometry width="50" height="50" relative="1" as="geometry">
                        <mxPoint x="60" y="350" as="sourcePoint"/>
                        <mxPoint x="80" y="140" as="targetPoint"/>
                    </mxGeometry>
                </mxCell>
                <mxCell id="4" value="package" style="rounded=0;whiteSpace=wrap;html=1;fontSize=18;" vertex="1" parent="1">
                    <mxGeometry x="40" y="40" width="160" height="40" as="geometry"/>
                </mxCell>
                <mxCell id="5" value="Kptfile" style="rounded=0;whiteSpace=wrap;html=1;fontSize=8;" vertex="1" parent="1">
                    <mxGeometry x="80" y="130" width="80" height="20" as="geometry"/>
                </mxCell>
                <mxCell id="6" value="" style="endArrow=none;html=1;exitX=0;exitY=0.5;exitDx=0;exitDy=0;fontSize=10;" edge="1" parent="1" source="5">
                    <mxGeometry width="50" height="50" relative="1" as="geometry">
                        <mxPoint x="70" y="250" as="sourcePoint"/>
                        <mxPoint x="60" y="140" as="targetPoint"/>
                    </mxGeometry>
                </mxCell>
                <mxCell id="7" value="manifest A" style="rounded=0;whiteSpace=wrap;html=1;fontSize=8;" vertex="1" parent="1">
                    <mxGeometry x="80" y="160" width="80" height="20" as="geometry"/>
                </mxCell>
                <mxCell id="8" value="" style="endArrow=none;html=1;exitX=0;exitY=0.5;exitDx=0;exitDy=0;fontSize=10;" edge="1" parent="1" source="7">
                    <mxGeometry width="50" height="50" relative="1" as="geometry">
                        <mxPoint x="70" y="280" as="sourcePoint"/>
                        <mxPoint x="60" y="170" as="targetPoint"/>
                    </mxGeometry>
                </mxCell>
                <mxCell id="9" value="manifest B" style="rounded=0;whiteSpace=wrap;html=1;fontSize=8;" vertex="1" parent="1">
                    <mxGeometry x="80" y="190" width="80" height="20" as="geometry"/>
                </mxCell>
                <mxCell id="10" value="" style="endArrow=none;html=1;exitX=0;exitY=0.5;exitDx=0;exitDy=0;fontSize=10;" edge="1" parent="1" source="9">
                    <mxGeometry width="50" height="50" relative="1" as="geometry">
                        <mxPoint x="70" y="310" as="sourcePoint"/>
                        <mxPoint x="60" y="200" as="targetPoint"/>
                    </mxGeometry>
                </mxCell>
                <mxCell id="11" value="manifest ..." style="rounded=0;whiteSpace=wrap;html=1;fontSize=8;" vertex="1" parent="1">
                    <mxGeometry x="80" y="220" width="80" height="20" as="geometry"/>
                </mxCell>
                <mxCell id="12" value="" style="endArrow=none;html=1;exitX=0;exitY=0.5;exitDx=0;exitDy=0;fontSize=10;" edge="1" parent="1" source="11">
                    <mxGeometry width="50" height="50" relative="1" as="geometry">
                        <mxPoint x="70" y="340" as="sourcePoint"/>
                        <mxPoint x="60" y="230" as="targetPoint"/>
                    </mxGeometry>
                </mxCell>
                <mxCell id="13" value="Subpackage X" style="rounded=0;whiteSpace=wrap;html=1;fontSize=10;fontStyle=1" vertex="1" parent="1">
                    <mxGeometry x="80" y="280" width="80" height="20" as="geometry"/>
                </mxCell>
                <mxCell id="14" value="" style="endArrow=none;html=1;exitX=0;exitY=0.5;exitDx=0;exitDy=0;fontSize=10;" edge="1" parent="1" source="13">
                    <mxGeometry width="50" height="50" relative="1" as="geometry">
                        <mxPoint x="70" y="400" as="sourcePoint"/>
                        <mxPoint x="60" y="290" as="targetPoint"/>
                    </mxGeometry>
                </mxCell>
                <mxCell id="15" value="" style="endArrow=none;html=1;entryX=0.25;entryY=1;entryDx=0;entryDy=0;fontSize=10;" edge="1" parent="1">
                    <mxGeometry width="50" height="50" relative="1" as="geometry">
                        <mxPoint x="90" y="320" as="sourcePoint"/>
                        <mxPoint x="90" y="300" as="targetPoint"/>
                    </mxGeometry>
                </mxCell>
                <mxCell id="16" value="&amp;nbsp;..." style="rounded=0;whiteSpace=wrap;html=1;align=left;fillColor=none;strokeColor=none;fontSize=10;" vertex="1" parent="1">
                    <mxGeometry x="110" y="310" width="80" height="20" as="geometry"/>
                </mxCell>
                <mxCell id="17" value="" style="endArrow=none;html=1;exitX=0;exitY=0.5;exitDx=0;exitDy=0;fontSize=10;" edge="1" parent="1" source="16">
                    <mxGeometry width="50" height="50" relative="1" as="geometry">
                        <mxPoint x="100" y="430" as="sourcePoint"/>
                        <mxPoint x="90" y="320" as="targetPoint"/>
                    </mxGeometry>
                </mxCell>
                <mxCell id="18" value="Subpackage Y" style="rounded=0;whiteSpace=wrap;html=1;fontSize=10;fontStyle=1" vertex="1" parent="1">
                    <mxGeometry x="80" y="340" width="80" height="20" as="geometry"/>
                </mxCell>
                <mxCell id="19" value="" style="endArrow=none;html=1;exitX=0;exitY=0.5;exitDx=0;exitDy=0;fontSize=10;" edge="1" parent="1" source="18">
                    <mxGeometry width="50" height="50" relative="1" as="geometry">
                        <mxPoint x="70" y="460" as="sourcePoint"/>
                        <mxPoint x="60" y="350" as="targetPoint"/>
                    </mxGeometry>
                </mxCell>
                <mxCell id="20" value="" style="endArrow=none;html=1;entryX=0.25;entryY=1;entryDx=0;entryDy=0;fontSize=10;" edge="1" parent="1">
                    <mxGeometry width="50" height="50" relative="1" as="geometry">
                        <mxPoint x="90" y="380" as="sourcePoint"/>
                        <mxPoint x="90" y="360" as="targetPoint"/>
                    </mxGeometry>
                </mxCell>
                <mxCell id="21" value="&amp;nbsp;..." style="rounded=0;whiteSpace=wrap;html=1;align=left;fillColor=none;strokeColor=none;fontSize=10;" vertex="1" parent="1">
                    <mxGeometry x="110" y="370" width="80" height="20" as="geometry"/>
                </mxCell>
                <mxCell id="22" value="" style="endArrow=none;html=1;exitX=0;exitY=0.5;exitDx=0;exitDy=0;fontSize=10;" edge="1" parent="1" source="21">
                    <mxGeometry width="50" height="50" relative="1" as="geometry">
                        <mxPoint x="100" y="490" as="sourcePoint"/>
                        <mxPoint x="90" y="380" as="targetPoint"/>
                    </mxGeometry>
                </mxCell>
                <mxCell id="23" value="" style="shape=step;perimeter=stepPerimeter;whiteSpace=wrap;html=1;fixedSize=1;fontSize=10;fillColor=none;strokeColor=#FF0000;" vertex="1" parent="1">
                    <mxGeometry x="320" y="230" width="80" height="40" as="geometry"/>
                </mxCell>
                <mxCell id="26" value="Package" style="rounded=0;whiteSpace=wrap;html=1;fontSize=10;fontStyle=1" vertex="1" parent="1">
                    <mxGeometry x="520" y="100" width="80" height="20" as="geometry"/>
                </mxCell>
                <mxCell id="27" value="" style="endArrow=none;html=1;entryX=0.25;entryY=1;entryDx=0;entryDy=0;fontSize=10;" edge="1" parent="1" target="26">
                    <mxGeometry width="50" height="50" relative="1" as="geometry">
                        <mxPoint x="540" y="350" as="sourcePoint"/>
                        <mxPoint x="560" y="140" as="targetPoint"/>
                    </mxGeometry>
                </mxCell>
                <mxCell id="28" value="updated package" style="rounded=0;whiteSpace=wrap;html=1;fontSize=18;" vertex="1" parent="1">
                    <mxGeometry x="520" y="40" width="160" height="40" as="geometry"/>
                </mxCell>
                <mxCell id="29" value="Kptfile" style="rounded=0;whiteSpace=wrap;html=1;fontSize=8;" vertex="1" parent="1">
                    <mxGeometry x="560" y="130" width="80" height="20" as="geometry"/>
                </mxCell>
                <mxCell id="30" value="" style="endArrow=none;html=1;exitX=0;exitY=0.5;exitDx=0;exitDy=0;fontSize=10;" edge="1" parent="1" source="29">
                    <mxGeometry width="50" height="50" relative="1" as="geometry">
                        <mxPoint x="550" y="250" as="sourcePoint"/>
                        <mxPoint x="540" y="140" as="targetPoint"/>
                    </mxGeometry>
                </mxCell>
                <mxCell id="31" value="manifest A" style="rounded=0;whiteSpace=wrap;html=1;fontSize=8;" vertex="1" parent="1">
                    <mxGeometry x="560" y="160" width="80" height="20" as="geometry"/>
                </mxCell>
                <mxCell id="32" value="" style="endArrow=none;html=1;exitX=0;exitY=0.5;exitDx=0;exitDy=0;fontSize=10;" edge="1" parent="1" source="31">
                    <mxGeometry width="50" height="50" relative="1" as="geometry">
                        <mxPoint x="550" y="280" as="sourcePoint"/>
                        <mxPoint x="540" y="170" as="targetPoint"/>
                    </mxGeometry>
                </mxCell>
                <mxCell id="33" value="manifest B" style="rounded=0;whiteSpace=wrap;html=1;fontSize=8;" vertex="1" parent="1">
                    <mxGeometry x="560" y="190" width="80" height="20" as="geometry"/>
                </mxCell>
                <mxCell id="34" value="" style="endArrow=none;html=1;exitX=0;exitY=0.5;exitDx=0;exitDy=0;fontSize=10;" edge="1" parent="1" source="33">
                    <mxGeometry width="50" height="50" relative="1" as="geometry">
                        <mxPoint x="550" y="310" as="sourcePoint"/>
                        <mxPoint x="540" y="200" as="targetPoint"/>
                    </mxGeometry>
                </mxCell>
                <mxCell id="35" value="manifest ..." style="rounded=0;whiteSpace=wrap;html=1;fontSize=8;" vertex="1" parent="1">
                    <mxGeometry x="560" y="220" width="80" height="20" as="geometry"/>
                </mxCell>
                <mxCell id="36" value="" style="endArrow=none;html=1;exitX=0;exitY=0.5;exitDx=0;exitDy=0;fontSize=10;" edge="1" parent="1" source="35">
                    <mxGeometry width="50" height="50" relative="1" as="geometry">
                        <mxPoint x="550" y="340" as="sourcePoint"/>
                        <mxPoint x="540" y="230" as="targetPoint"/>
                    </mxGeometry>
                </mxCell>
                <mxCell id="37" value="Subpackage X" style="rounded=0;whiteSpace=wrap;html=1;fontSize=10;fontStyle=1" vertex="1" parent="1">
                    <mxGeometry x="560" y="280" width="80" height="20" as="geometry"/>
                </mxCell>
                <mxCell id="38" value="" style="endArrow=none;html=1;exitX=0;exitY=0.5;exitDx=0;exitDy=0;fontSize=10;" edge="1" parent="1" source="37">
                    <mxGeometry width="50" height="50" relative="1" as="geometry">
                        <mxPoint x="550" y="400" as="sourcePoint"/>
                        <mxPoint x="540" y="290" as="targetPoint"/>
                    </mxGeometry>
                </mxCell>
                <mxCell id="39" value="" style="endArrow=none;html=1;entryX=0.25;entryY=1;entryDx=0;entryDy=0;fontSize=10;" edge="1" parent="1">
                    <mxGeometry width="50" height="50" relative="1" as="geometry">
                        <mxPoint x="570" y="320" as="sourcePoint"/>
                        <mxPoint x="570" y="300" as="targetPoint"/>
                    </mxGeometry>
                </mxCell>
                <mxCell id="40" value="&amp;nbsp;..." style="rounded=0;whiteSpace=wrap;html=1;align=left;fillColor=none;strokeColor=none;fontSize=10;" vertex="1" parent="1">
                    <mxGeometry x="590" y="310" width="80" height="20" as="geometry"/>
                </mxCell>
                <mxCell id="41" value="" style="endArrow=none;html=1;exitX=0;exitY=0.5;exitDx=0;exitDy=0;fontSize=10;" edge="1" parent="1" source="40">
                    <mxGeometry width="50" height="50" relative="1" as="geometry">
                        <mxPoint x="580" y="430" as="sourcePoint"/>
                        <mxPoint x="570" y="320" as="targetPoint"/>
                    </mxGeometry>
                </mxCell>
                <mxCell id="42" value="Subpackage Y" style="rounded=0;whiteSpace=wrap;html=1;fontSize=10;fontStyle=1" vertex="1" parent="1">
                    <mxGeometry x="560" y="340" width="80" height="20" as="geometry"/>
                </mxCell>
                <mxCell id="43" value="" style="endArrow=none;html=1;exitX=0;exitY=0.5;exitDx=0;exitDy=0;fontSize=10;" edge="1" parent="1" source="42">
                    <mxGeometry width="50" height="50" relative="1" as="geometry">
                        <mxPoint x="550" y="460" as="sourcePoint"/>
                        <mxPoint x="540" y="350" as="targetPoint"/>
                    </mxGeometry>
                </mxCell>
                <mxCell id="44" value="" style="endArrow=none;html=1;entryX=0.25;entryY=1;entryDx=0;entryDy=0;fontSize=10;" edge="1" parent="1">
                    <mxGeometry width="50" height="50" relative="1" as="geometry">
                        <mxPoint x="570" y="380" as="sourcePoint"/>
                        <mxPoint x="570" y="360" as="targetPoint"/>
                    </mxGeometry>
                </mxCell>
                <mxCell id="45" value="&amp;nbsp;..." style="rounded=0;whiteSpace=wrap;html=1;align=left;fillColor=none;strokeColor=none;fontSize=10;" vertex="1" parent="1">
                    <mxGeometry x="590" y="370" width="80" height="20" as="geometry"/>
                </mxCell>
                <mxCell id="46" value="" style="endArrow=none;html=1;exitX=0;exitY=0.5;exitDx=0;exitDy=0;fontSize=10;" edge="1" parent="1" source="45">
                    <mxGeometry width="50" height="50" relative="1" as="geometry">
                        <mxPoint x="580" y="490" as="sourcePoint"/>
                        <mxPoint x="570" y="380" as="targetPoint"/>
                    </mxGeometry>
                </mxCell>
                <mxCell id="47" value="dependencies.yaml" style="rounded=0;whiteSpace=wrap;html=1;fontSize=8;fontColor=#FF0000;strokeColor=#FF0000;" vertex="1" parent="1">
                    <mxGeometry x="560" y="250" width="80" height="20" as="geometry"/>
                </mxCell>
                <mxCell id="48" value="" style="endArrow=none;html=1;exitX=0;exitY=0.5;exitDx=0;exitDy=0;fontSize=10;strokeColor=#FF0000;" edge="1" parent="1" source="47">
                    <mxGeometry width="50" height="50" relative="1" as="geometry">
                        <mxPoint x="550" y="370" as="sourcePoint"/>
                        <mxPoint x="540" y="260" as="targetPoint"/>
                    </mxGeometry>
                </mxCell>
                <mxCell id="49" value="kpt function" style="rounded=0;whiteSpace=wrap;html=1;fontSize=18;" vertex="1" parent="1">
                    <mxGeometry x="280" y="40" width="160" height="40" as="geometry"/>
                </mxCell>
                <mxCell id="50" value="original&lt;br&gt;ResourceList" style="html=1;verticalLabelPosition=bottom;align=center;labelBackgroundColor=#ffffff;verticalAlign=top;strokeWidth=1;strokeColor=#000000;shadow=0;dashed=0;shape=mxgraph.ios7.icons.document;fontSize=8;fillColor=none;" vertex="1" parent="1">
                    <mxGeometry x="240" y="220" width="40" height="60" as="geometry"/>
                </mxCell>
                <mxCell id="51" value="updated&lt;br&gt;ResourceList" style="html=1;verticalLabelPosition=bottom;align=center;labelBackgroundColor=#ffffff;verticalAlign=top;strokeWidth=1;strokeColor=#000000;shadow=0;dashed=0;shape=mxgraph.ios7.icons.document;fontSize=8;fillColor=none;" vertex="1" parent="1">
                    <mxGeometry x="440" y="220" width="40" height="60" as="geometry"/>
                </mxCell>
                <mxCell id="52" value="" style="endArrow=classic;html=1;fontSize=10;entryX=0;entryY=0.5;entryDx=0;entryDy=0;strokeWidth=0.5;strokeColor=#808080;" edge="1" parent="1" target="23">
                    <mxGeometry width="50" height="50" relative="1" as="geometry">
                        <mxPoint x="280" y="250" as="sourcePoint"/>
                        <mxPoint x="470" y="260" as="targetPoint"/>
                    </mxGeometry>
                </mxCell>
                <mxCell id="53" value="" style="endArrow=blockThin;html=1;fontSize=10;exitX=1;exitY=0.5;exitDx=0;exitDy=0;endFill=1;strokeColor=#808080;strokeWidth=0.5;" edge="1" parent="1" source="23" target="51">
                    <mxGeometry width="50" height="50" relative="1" as="geometry">
                        <mxPoint x="290" y="260" as="sourcePoint"/>
                        <mxPoint x="350" y="260" as="targetPoint"/>
                    </mxGeometry>
                </mxCell>
                <mxCell id="54" value="" style="shape=curlyBracket;whiteSpace=wrap;html=1;rounded=1;flipH=1;labelPosition=right;verticalLabelPosition=middle;align=left;verticalAlign=middle;strokeColor=#000000;strokeWidth=1;fontSize=10;fillColor=none;" vertex="1" parent="1">
                    <mxGeometry x="200" y="100" width="20" height="300" as="geometry"/>
                </mxCell>
                <mxCell id="55" value="" style="shape=curlyBracket;whiteSpace=wrap;html=1;rounded=1;labelPosition=left;verticalLabelPosition=middle;align=right;verticalAlign=middle;strokeColor=#000000;strokeWidth=1;fontSize=10;fillColor=none;" vertex="1" parent="1">
                    <mxGeometry x="490" y="100" width="20" height="300" as="geometry"/>
                </mxCell>
                <mxCell id="56" value="stdin" style="rounded=0;whiteSpace=wrap;html=1;fontSize=8;strokeWidth=0;fillColor=none;strokeColor=none;align=right;" vertex="1" parent="1">
                    <mxGeometry x="280" y="240" width="40" height="10" as="geometry"/>
                </mxCell>
                <mxCell id="57" value="stdout" style="rounded=0;whiteSpace=wrap;html=1;fontSize=8;strokeWidth=0;fillColor=none;strokeColor=none;align=left;" vertex="1" parent="1">
                    <mxGeometry x="400" y="240" width="40" height="10" as="geometry"/>
                </mxCell>
                <mxCell id="58" value="dependencies.js" style="rounded=0;whiteSpace=wrap;html=1;fontSize=10;fillColor=none;strokeColor=none;fontColor=#FF0000;" vertex="1" parent="1">
                    <mxGeometry x="320" y="270" width="80" height="20" as="geometry"/>
                </mxCell>
                <mxCell id="59" value="" style="endArrow=blockThin;html=1;fontSize=10;exitX=1;exitY=0.5;exitDx=0;exitDy=0;endFill=1;strokeColor=#808080;strokeWidth=0.5;entryX=0;entryY=0.5;entryDx=0;entryDy=0;" edge="1" parent="1" target="49">
                    <mxGeometry width="50" height="50" relative="1" as="geometry">
                        <mxPoint x="200" y="59.71000000000001" as="sourcePoint"/>
                        <mxPoint x="240" y="59.71000000000001" as="targetPoint"/>
                    </mxGeometry>
                </mxCell>
                <mxCell id="60" value="" style="endArrow=blockThin;html=1;fontSize=10;exitX=1;exitY=0.5;exitDx=0;exitDy=0;endFill=1;strokeColor=#808080;strokeWidth=0.5;entryX=0;entryY=0.5;entryDx=0;entryDy=0;" edge="1" parent="1">
                    <mxGeometry width="50" height="50" relative="1" as="geometry">
                        <mxPoint x="440" y="59.710000000000036" as="sourcePoint"/>
                        <mxPoint x="520" y="60" as="targetPoint"/>
                    </mxGeometry>
                </mxCell>
            </root>
        </mxGraphModel>
    </diagram>
</mxfile>